<?xml version="1.0" encoding="iso-8859-1"?>
<!-- Generator: Adobe Illustrator 16.0.0, SVG Export Plug-In . SVG Version: 6.00 Build 0)  -->
<!DOCTYPE svg PUBLIC "-//W3C//DTD SVG 1.1//EN" "http://www.w3.org/Graphics/SVG/1.1/DTD/svg11.dtd">
<svg version="1.1" id="Capa_1" xmlns="http://www.w3.org/2000/svg" xmlns:xlink="http://www.w3.org/1999/xlink" x="0px" y="0px"
	 width="608.018px" height="608.018px" viewBox="0 0 608.018 608.018" style="enable-background:new 0 0 608.018 608.018;"
	 xml:space="preserve">
<g>
	<g>
		<path d="M576.662,351.723h-204.49v21.812c0,12.049-9.762,21.812-21.811,21.812h-92.7c-12.049,0-21.812-9.77-21.812-21.812v-21.812
			H31.36v256.295h545.306V351.723H576.662z"/>
		<path d="M6.818,139.053V308.1h229.026v-21.813c0-12.049,9.764-21.812,21.812-21.812h92.704c12.049,0,21.811,9.763,21.811,21.812
			V308.1h229.027V139.053c0-12.049-9.764-21.812-21.812-21.812H425.594c5.617-4.494,9.289-11.332,9.289-19.086
			C434.883,43.112,377.398,0,304.011,0S173.139,43.112,173.139,98.154c0,7.755,3.672,14.592,9.29,19.086H28.63
			C16.586,117.241,6.818,127.009,6.818,139.053z M222.213,98.154c0-26.144,38.227-49.08,81.798-49.08
			c43.571,0,81.797,22.936,81.797,49.08c0,7.755,3.672,14.592,9.291,19.086H212.924C218.546,112.747,222.213,105.914,222.213,98.154
			z"/>
	</g>
</g>
<g>
</g>
<g>
</g>
<g>
</g>
<g>
</g>
<g>
</g>
<g>
</g>
<g>
</g>
<g>
</g>
<g>
</g>
<g>
</g>
<g>
</g>
<g>
</g>
<g>
</g>
<g>
</g>
<g>
</g>
</svg>
